<?xml version="1.0" encoding="UTF-8" standalone="no"?>
<!DOCTYPE svg PUBLIC "-//W3C//DTD SVG 1.1//EN" "http://www.w3.org/Graphics/SVG/1.1/DTD/svg11.dtd">
<svg width="100%" height="100%" viewBox="0 0 227 227" version="1.1" xmlns="http://www.w3.org/2000/svg" xmlns:xlink="http://www.w3.org/1999/xlink" xml:space="preserve" style="fill-rule:evenodd;clip-rule:evenodd;stroke-linejoin:round;stroke-miterlimit:1.41421;">
    <path d="M135.715,122.244C133.101,120.934 127.278,119.17 120.347,118.711C113.413,118.253 104.519,118.711 104.519,118.711L104.519,148.731C104.519,148.731 113.806,148.929 120.022,148.471C126.232,148.013 132.643,146.444 135.848,144.676C139.051,142.91 142.911,140.163 142.911,133.297C142.911,126.428 138.332,123.552 135.715,122.244L135.715,122.244ZM116.16,104.779C121.264,104.582 126.692,103.406 130.613,101.247C134.538,99.089 136.761,95.69 136.633,90.587C136.499,85.485 133.101,81.169 127.346,79.401C121.589,77.635 117.733,77.504 113.348,77.439C108.966,77.375 104.518,77.767 104.518,77.767L104.518,104.779C104.519,104.779 111.059,104.976 116.16,104.779L116.16,104.779Z" style="fill:url(#_Linear1);fill-rule:nonzero;"/>
    <path d="M113.413,0C50.777,0 0,50.776 0,113.413C0,176.049 50.777,226.826 113.413,226.826C176.049,226.826 226.824,176.049 226.824,113.413C226.824,50.776 176.049,0 113.413,0ZM159.591,156.777C151.151,162.664 142.126,163.712 138.136,164.233C136.167,164.492 132.794,164.765 129.177,164.977L129.177,187.715L115.179,187.715L115.179,165.345L104.519,165.345L104.519,187.715L90.522,187.715L90.522,165.345L62.987,165.345L65.864,148.533L74.235,148.533C77.049,148.533 78.224,148.272 79.401,147.161C80.578,146.048 80.84,144.349 80.84,142.973L80.84,85.057C80.84,81.429 80.545,80.447 78.877,78.584C77.209,76.717 73.286,76.472 71.077,76.472L62.986,76.472L62.986,61.939L90.521,61.939L90.521,39.505L104.517,39.505L104.517,61.939L115.177,61.939L115.177,39.505L129.175,39.505L129.175,62.208C139.61,62.855 147.378,64.843 154.158,69.853C162.924,76.328 162.464,87.577 162.268,90.259C162.073,92.941 160.896,98.109 158.539,101.442C156.187,104.779 150.431,108.115 150.431,108.115C150.431,108.115 157.232,109.553 162.009,113.151C166.78,116.749 170.316,123.092 170.115,132.38C169.923,141.668 168.027,150.891 159.591,156.777Z" style="fill:url(#_Linear2);fill-rule:nonzero;"/>
    <defs>
        <linearGradient id="_Linear1" x1="0" y1="0" x2="1" y2="0" gradientUnits="userSpaceOnUse" gradientTransform="matrix(226.824,0,0,226.826,0,113.413)"><stop offset="0" style="stop-color:rgb(202,48,88);stop-opacity:0.8"/><stop offset="1" style="stop-color:rgb(255,153,72);stop-opacity:1"/></linearGradient>
        <linearGradient id="_Linear2" x1="0" y1="0" x2="1" y2="0" gradientUnits="userSpaceOnUse" gradientTransform="matrix(226.824,0,0,226.826,0,113.413)"><stop offset="0" style="stop-color:rgb(202,48,88);stop-opacity:0.8"/><stop offset="1" style="stop-color:rgb(255,153,72);stop-opacity:1"/></linearGradient>
    </defs>
</svg>
