<?xml version="1.0" encoding="UTF-8" standalone="no"?>
<!DOCTYPE svg PUBLIC "-//W3C//DTD SVG 1.1//EN" "http://www.w3.org/Graphics/SVG/1.1/DTD/svg11.dtd">
<svg width="100%" height="100%" viewBox="0 0 227 227" version="1.1" xmlns="http://www.w3.org/2000/svg" xmlns:xlink="http://www.w3.org/1999/xlink" xml:space="preserve" style="fill-rule:evenodd;clip-rule:evenodd;stroke-linejoin:round;stroke-miterlimit:1.41421;">
    <path d="M113.388,0C50.766,0 0,50.766 0,113.388C0,176.011 50.766,226.777 113.389,226.777C176.012,226.777 226.778,176.011 226.778,113.388C226.777,50.766 176.011,0 113.388,0ZM56.562,104.802L101.828,104.802L96.59,121.826L51.326,121.826L56.562,104.802ZM173.83,96.773C172.029,103.279 166.174,122.796 163.771,129.718C161.371,136.64 156.942,142.452 151.265,145.775C145.589,149.098 143.468,150.487 135.534,150.487L54.303,150.487L60.024,131.945L136.419,131.945L147.833,94.836L72.043,94.836L77.765,76.295L162.342,76.295C166.217,76.295 171.338,78.087 173.83,82.934C176.321,87.775 175.629,90.267 173.83,96.773L173.83,96.773Z" style="fill:url(#_Linear1);fill-rule:nonzero;"/>
    <defs>
        <linearGradient id="_Linear1" x1="0" y1="0" x2="1" y2="0" gradientUnits="userSpaceOnUse" gradientTransform="matrix(226.778,0,0,226.777,0,113.388)"><stop offset="0" style="stop-color:rgb(202,48,88);stop-opacity:0.8"/><stop offset="1" style="stop-color:rgb(255,153,72);stop-opacity:1"/></linearGradient>
    </defs>
</svg>
